<?xml version="1.0" encoding="UTF-8" standalone="no"?>
<svg
   xmlns:dc="http://purl.org/dc/elements/1.1/"
   xmlns:cc="http://creativecommons.org/ns#"
   xmlns:rdf="http://www.w3.org/1999/02/22-rdf-syntax-ns#"
   xmlns:svg="http://www.w3.org/2000/svg"
   xmlns="http://www.w3.org/2000/svg"
   xmlns:sodipodi="http://sodipodi.sourceforge.net/DTD/sodipodi-0.dtd"
   xmlns:inkscape="http://www.inkscape.org/namespaces/inkscape"
   id="Layer_1"
   data-name="Layer 1"
   viewBox="0 0 1092.8934 159.50678"
   version="1.1"
   sodipodi:docname="Banjarmasin Post.svg"
   width="1092.8934"
   height="159.50677"
   inkscape:version="0.92.3 (2405546, 2018-03-11)">
  <metadata
     id="metadata67">
    <rdf:RDF>
      <cc:Work
         rdf:about="">
        <dc:format>image/svg+xml</dc:format>
        <dc:type
           rdf:resource="http://purl.org/dc/dcmitype/StillImage" />
        <dc:title>banjarmasin post</dc:title>
      </cc:Work>
    </rdf:RDF>
  </metadata>
  <sodipodi:namedview
     pagecolor="#ffffff"
     bordercolor="#666666"
     borderopacity="1"
     objecttolerance="10"
     gridtolerance="10"
     guidetolerance="10"
     inkscape:pageopacity="0"
     inkscape:pageshadow="2"
     inkscape:window-width="1366"
     inkscape:window-height="745"
     id="namedview65"
     showgrid="false"
     fit-margin-top="0"
     fit-margin-left="0"
     fit-margin-right="0"
     fit-margin-bottom="0"
     inkscape:zoom="0.32275526"
     inkscape:cx="594.86906"
     inkscape:cy="79.768397"
     inkscape:window-x="-8"
     inkscape:window-y="-8"
     inkscape:window-maximized="1"
     inkscape:current-layer="Layer_1" />
  <defs
     id="defs4">
    <style
       id="style2">.cls-1{fill:#231f20;}.cls-2,.cls-3{fill:#db1f26;}.cls-3{fill-rule:evenodd;}</style>
  </defs>
  <title
     id="title6">banjarmasin post</title>
  <path
     class="cls-1"
     d="m 985.58314,53.536872 v -4.25772 l -0.94616,-4.257718 v -0.867313 l -0.70962,-2.680786 -0.94616,-3.153866 -1.41924,-2.83848 -1.26154,-2.838478 -1.81346,-2.12886 -2.12886,-2.12886 -2.05002,-1.41924 -2.44424,-1.41924 -2.6808,-1.025007 -2.75962,-0.788466 h -3.31156 -3.23272 -3.31156 -3.07502 l -2.99618,0.788466 -2.3654,1.025007 -2.44424,1.41924 -2.12886,1.734626 -2.12886,1.813474 -1.49808,2.444246 -1.49808,2.523092 -1.1827,3.153866 -1.1827,3.232714 -0.63078,2.286552 v 1.261545 l -0.55192,4.178872 -0.63078,4.25772 v 4.651952 10.250066 4.967338 l 0.63078,4.573106 0.55192,3.942334 0.94616,3.863486 1.1827,3.153866 1.1827,3.232712 1.1827,1.89232 v 0.551926 l 1.89232,2.523094 1.73462,1.734626 2.44424,1.813476 2.3654,1.41924 2.44426,1.025 2.99616,0.70962 2.99618,0.39424 h 3.31156 3.31156 l 2.99618,-0.39424 3.07502,-0.70962 2.68078,-1.025 2.44424,-1.41924 2.05002,-1.813476 1.81348,-2.12886 1.81346,-2.12886 v -0.551926 l 1.1827,-2.286552 1.1827,-2.83848 1.1827,-3.5481 0.94616,-3.863486 0.63078,-3.863486 0.55192,-4.651952 v -4.573106 -5.67696 -4.967338 z m -34.45598,10.328911 v -7.884665 -6.38658 l 0.63078,-4.967337 v 0 l 0.55192,-3.390406 0.94616,-2.444246 1.49808,-2.12886 1.81348,-1.103852 h 2.12886 1.1827 1.1827 l 1.81348,1.103852 1.1827,1.734626 1.1827,2.523094 0.63076,3.705792 v 0 l 0.63078,4.967337 v 6.38658 15.76933 6.701966 4.96734 l -0.94616,3.942332 v 1.340394 l -1.26154,2.128858 -1.81348,1.41924 -1.81348,0.70962 h -1.1827 -2.05 l -1.26156,-0.394234 -1.49808,-1.419238 -1.1827,-2.12886 v -1.340394 l -0.86732,-3.548098 V 78.7678 l -0.63076,-6.386578 z"
     id="path8"
     inkscape:connector-curvature="0"
     style="fill:#231f20;stroke-width:7.88466549" />
  <polygon
     class="cls-1"
     points="130.56,18.05 129.91,17.73 129.49,17.55 129.11,17.33 128.8,17.15 128.57,16.97 128.34,16.79 128.23,16.61 128.18,16.5 128.15,16.43 128.11,16.21 128.11,16.03 128.19,15.85 128.38,15.53 128.53,15.44 128.69,15.35 128.92,15.31 129.15,15.31 129.45,15.35 129.72,15.44 129.99,15.62 130.25,15.89 130.48,16.25 130.62,16.5 130.71,16.66 130.86,17.1 131.02,17.6 132.16,17.6 132.15,16.5 132.12,14.05 131.25,14.05 130.82,14.77 130.63,14.54 130.41,14.36 130.21,14.18 129.99,14.05 129.76,13.91 129.49,13.87 129.22,13.82 128.92,13.78 128.65,13.82 128.38,13.87 128.11,13.91 127.88,14.01 127.66,14.14 127.43,14.28 127.24,14.41 127.04,14.63 126.86,14.81 126.74,15.04 126.59,15.31 126.51,15.53 126.43,15.8 126.36,16.12 126.32,16.39 126.32,16.5 126.32,16.75 126.32,17.02 126.36,17.28 126.4,17.55 126.47,17.78 126.59,18 126.66,18.23 126.81,18.45 126.93,18.63 127.31,18.99 127.77,19.35 128.34,19.71 129.03,20.02 129.45,20.2 129.83,20.43 130.14,20.61 130.41,20.83 130.6,21.01 130.75,21.24 130.82,21.41 130.86,21.64 130.82,21.86 130.79,22.04 130.71,22.22 130.48,22.5 130.29,22.58 130.1,22.63 129.91,22.67 129.68,22.63 129.49,22.63 129.26,22.58 129.07,22.5 128.88,22.4 128.69,22.27 128.53,22.13 128.38,22 128.08,21.59 127.81,21.15 127.62,20.61 127.43,19.98 126.32,19.98 126.34,22.87 126.36,23.93 127.24,23.89 127.69,23.08 127.92,23.35 128.15,23.57 128.42,23.75 128.69,23.89 128.95,24.02 129.26,24.07 129.56,24.16 129.91,24.16 130.21,24.16 130.48,24.11 130.75,24.02 131.02,23.93 131.25,23.84 131.47,23.66 131.66,23.53 131.86,23.3 132.01,23.08 132.15,22.87 132.16,22.85 132.31,22.63 132.39,22.36 132.47,22.04 132.54,21.77 132.58,21.46 132.58,21.1 132.58,20.83 132.54,20.56 132.5,20.29 132.43,20.02 132.35,19.8 132.24,19.57 132.12,19.35 131.97,19.12 131.59,18.76 131.13,18.41 "
     id="polygon10"
     style="fill:#231f20"
     transform="matrix(7.8846652,0,0,7.8846652,0,-85.942851)" />
  <polygon
     class="cls-1"
     points="136.86,22.63 136.7,22.4 136.67,22.04 136.63,21.51 136.6,16.5 136.59,15.35 138.27,15.35 138.27,14.01 136.59,14.01 136.59,11.67 135.33,11.67 135.29,12.25 135.18,12.75 135.14,12.93 134.95,13.29 134.87,13.47 134.64,13.65 134.3,13.82 133.92,13.96 133.42,14.05 133.42,15.4 134.34,15.35 134.34,16.5 134.34,21.64 134.38,22.22 134.49,22.76 134.52,22.87 134.56,22.99 134.64,23.17 134.87,23.48 135.02,23.62 135.18,23.75 135.37,23.84 135.56,23.93 136.02,24.02 136.59,24.07 137.09,24.02 137.54,23.93 137.74,23.84 137.89,23.75 138.04,23.62 138.27,23.35 138.38,23.12 138.46,22.94 138.47,22.87 138.5,22.72 138.61,22.18 138.61,21.55 138.61,20.88 137.58,20.88 137.58,21.55 137.58,21.86 137.54,22.09 137.51,22.31 137.39,22.54 137.2,22.67 137.05,22.67 "
     id="polygon12"
     style="fill:#231f20"
     transform="matrix(7.8846652,0,0,7.8846652,0,-85.942851)" />
  <path
     class="cls-1"
     d="m 924.95008,19.869352 -0.63078,-3.153866 -0.86732,-2.523094 -1.1827,-2.444246 -1.57692,-2.1288597 -1.41924,-1.813472 -1.89232,-1.734626 -2.05002,-1.41924 -2.12886,-1.103854 -2.3654,-1.025006 -2.75964,-0.70962 -2.99616,-0.70962 h -3.31156 -23.654 -16.79434 V 12.773154 h 5.0462 l 1.26154,0.709618 0.55192,1.813474 v 2.444246 69.069668 2.128858 l -1.1827,1.734628 -1.49808,0.70962 h -3.94234 v 11.905844 h 36.11178 V 91.067878 h -6.70198 l -1.73462,-0.70962 -0.63078,-1.41924 V 86.81016 59.21383 h 11.43278 l 3.62694,-0.394232 2.99618,-0.70962 2.99616,-0.70962 2.75964,-1.025007 2.3654,-1.103853 2.12886,-1.41924 1.81346,-1.734626 1.81348,-2.12886 1.49808,-2.12886 1.1827,-2.444246 0.47308,-1.261545 0.47308,-1.261546 0.86732,-2.83848 0.63078,-3.153866 v -3.548098 -7.0962 -3.548099 z m -18.9232,9.934679 v 4.573106 l -0.63078,3.5481 -0.94616,3.232712 -1.97116,2.996172 v 0 l -1.81348,1.734625 -1.1827,0.394234 -2.44424,0.70962 h -3.31156 -5.12504 V 12.300074 h 5.12504 2.99618 l 2.75962,0.70962 2.05002,1.419238 1.81348,1.813474 1.1827,2.050012 0.94616,3.232714 0.63076,3.548099 z"
     id="path14"
     inkscape:connector-curvature="0"
     style="fill:#231f20;stroke-width:7.88466549" />
  <path
     class="cls-1"
     d="m 845.07842,67.886962 -1.4981,1.340394 -1.41924,0.788466 -1.49808,0.867313 -1.41924,0.473079 h -2.83848 l -1.49808,-0.473079 -4.7308,-2.523093 -4.65196,-2.12886 -4.33656,-2.12886 -4.7308,-2.128858 -1.26154,-11.275072 v -1.971166 l -1.4981,-13.640469 -1.025,-13.167393 -1.65578,-13.2462357 4.02118,-1.261548 2.12886,-7.25389198 H 807.07432 L 801.23968,5.6769543 H 781.6857 l -5.83464,-5.51926598 h -9.69814 l 1.41924,7.88466598 4.33656,0.867314 -3.7058,42.4194977 -1.025,11.669304 -4.65194,2.12886 -4.7308,2.128859 -4.7308,2.128859 -4.65196,2.12886 -1.49808,0.47308 h -3.23272 l -1.41924,-0.47308 -1.10386,-1.498086 -1.10384,-0.788466 -1.41924,-1.340394 -1.10386,-1.65578 -1.10386,2.523094 v 2.128859 1.261547 1.340392 l 1.10386,1.65578 1.10386,0.867314 1.41924,0.867312 h 1.10384 l 1.10386,0.394234 2.83848,-0.394234 2.5231,-1.261546 v 20.421284 h -2.12886 l -2.20772,-0.630774 -1.025,-1.65578 v -1.734626 -1.734626 l -2.12886,1.340394 -1.49808,1.261546 -0.70962,1.65578 v 1.734626 1.734626 l 0.78846,1.261546 1.41924,1.26155 1.81348,0.39423 h 5.04618 v 13.24624 h 2.91732 v -13.48278 h 3.31156 v 14.11355 h 3.7058 v -14.11355 h 2.60194 v 13.64047 h 2.83848 v -13.64047 h 2.44424 v 6.85966 l -1.41924,0.86731 v 1.65578 1.10385 l 1.10386,1.3404 0.70962,1.26154 h 2.91732 v -1.26154 h 2.83848 v 7.25389 h 1.73462 v -7.25389 h 3.94234 v 7.25389 h 2.5231 v -7.25389 h 4.02118 v 7.25389 h 2.2077 v -1.73463 h 12.30008 v 1.73463 h 2.12886 v -7.25389 h 4.4154 v 7.25389 h 2.5231 v -7.25389 h 3.94234 v 7.25389 h 2.60194 v -7.25389 h 2.91732 v 1.26154 h 2.5231 v -1.26154 l 1.49808,-0.86732 v -0.47308 -1.025 -2.12886 l -1.49808,-0.86731 v -6.78082 h 2.52308 v 13.64047 h 2.91734 v -13.71931 h 2.52308 v 14.0347 h 2.91734 v -14.0347 h 3.2327 v 13.64047 h 3.31156 v -13.64047 h 4.65196 l 1.89232,-0.473084 1.025,-1.182698 1.10386,-1.340394 v -1.65578 -1.734626 l -1.02502,-1.734626 -1.10384,-1.261546 -2.20772,-1.261548 v 1.734628 2.523092 l -1.41924,1.261546 -1.49808,0.47308 h -1.73462 V 76.008168 l 2.12886,0.867312 2.2077,0.394234 2.12886,-0.394234 2.2077,-0.867312 2.20772,-1.734627 0.70962,-1.261547 v -3.784638 l -1.10386,-2.996174 z m -47.308,48.569538 h -12.06354 v -1.26155 h 12.30008 z m 0,-2.52309 h -12.06354 v -1.26155 h 12.30008 z m 15.2174,-13.64047 h 2.91734 v 9.77698 h -2.91734 z M 799.89928,77.269714 h 10.17122 v 23.653996 h -10.4866 z m -14.42894,0 h 12.30008 v 2.996174 h -12.06354 z m 0,5.992346 h 12.30008 v 19.55397 H 785.70688 Z M 772.69718,77.269714 H 783.1838 V 100.92371 H 772.69718 Z M 750.2259,96.035218 V 73.011994 l 4.33656,-1.261546 3.94234,-2.12886 4.02118,-1.734626 3.94232,-2.12886 v 2.12886 l -1.81348,2.12886 -1.81346,2.12886 -1.025,1.261546 h -1.10386 l -1.10386,-0.394234 -1.10384,-1.261546 -0.70962,2.12886 v 2.12886 l 1.49808,1.261546 1.025,0.394234 h 9.77698 V 96.42945 Z m 19.86934,4.651952 v 9.38275 h -2.83848 v -9.38275 h 3.23272 z m 42.81374,-4.651952 V 77.269714 h 9.77698 l 1.81348,-0.867314 1.10386,-1.261546 v -1.65578 l -1.10386,-2.12886 -1.10386,0.788468 -1.10384,0.47308 -1.10386,-0.47308 -1.025,-0.394234 -1.89232,-2.523092 -1.73464,-2.12886 V 65.36387 l 4.02118,1.734626 4.33658,2.12886 3.94232,1.655779 4.33658,2.128859 v 22.39245 z"
     id="path16"
     inkscape:connector-curvature="0"
     style="fill:#231f20;stroke-width:7.88466549" />
  <polygon
     class="cls-1"
     points="103,30.37 102.72,30.53 102.49,30.8 102.72,30.75 103,30.7 103.14,30.7 103.27,30.7 103.46,30.91 103.59,31.02 103.82,31.13 103.96,31.08 104.28,30.97 104.56,30.91 104.83,30.97 105.2,30.97 105.43,30.8 105.62,30.59 105.43,30.64 105.15,30.64 104.93,30.59 104.75,30.43 104.24,30.48 103.69,30.48 103.55,30.43 103.37,30.32 103.19,30.32 "
     id="polygon18"
     style="fill:#231f20"
     transform="matrix(7.8846652,0,0,7.8846652,0,-85.942851)" />
  <polygon
     class="cls-1"
     points="96.43,30.43 96.16,30.59 95.88,30.8 96.11,30.75 96.43,30.75 96.66,30.75 96.89,30.91 96.98,31.08 97.12,31.13 97.26,31.13 97.39,31.08 97.67,30.97 97.95,30.91 98.27,31.02 98.59,31.02 98.86,30.86 99.05,30.59 98.82,30.7 98.59,30.7 98.36,30.59 98.18,30.43 97.67,30.48 97.07,30.53 96.94,30.43 96.8,30.37 96.62,30.32 "
     id="polygon20"
     style="fill:#231f20"
     transform="matrix(7.8846652,0,0,7.8846652,0,-85.942851)" />
  <polygon
     class="cls-1"
     points="99.74,30.37 99.46,30.59 99.19,30.8 99.42,30.75 99.69,30.7 99.83,30.7 99.97,30.75 100.2,30.91 100.29,31.08 100.42,31.13 100.56,31.13 100.7,31.08 100.98,30.97 101.25,30.91 101.57,31.02 101.9,31.02 102.12,30.86 102.36,30.59 102.12,30.64 101.85,30.7 101.62,30.59 101.48,30.43 100.93,30.48 100.38,30.53 100.24,30.43 100.06,30.32 99.92,30.32 "
     id="polygon22"
     style="fill:#231f20"
     transform="matrix(7.8846652,0,0,7.8846652,0,-85.942851)" />
  <path
     class="cls-1"
     d="m 841.76686,149.65094 -1.73464,-0.78846 -1.49808,-0.86732 -2.12886,-0.39423 h -1.10386 l -1.49808,0.78847 -1.41924,0.47308 h -1.10384 l -1.10386,-0.47308 0.70962,-3.78464 0.39424,-3.86349 v -1.26155 l 0.70962,-1.26154 1.10384,-0.86731 1.81348,-0.86732 0.70962,-2.12886 v -1.73463 l -1.10386,-1.65578 -2.12886,-1.26154 h -1.49808 -1.10386 l -1.10384,0.47308 -1.41924,1.65578 -0.70962,1.34039 v 1.26155 2.05001 1.73463 l -1.10386,1.73462 -1.10386,1.26155 -1.81346,0.86731 -1.73464,-0.47308 -1.49808,-0.86731 -1.10386,-1.65578 -0.70962,-1.73462 H 814.959 v -5.51927 l 1.81346,-0.78847 1.10386,-1.34039 1.025,-1.26155 0.78848,-1.26154 0.70962,-1.26155 0.70962,-1.73463 v -3.3904 l -1.41924,-0.86732 -1.10386,-0.39423 -1.41924,0.39423 -1.81348,0.86732 -1.81346,2.12886 -2.20772,1.65578 -2.91732,1.34039 h -13.0097 l -3.2327,-0.47308 -2.60194,-0.39423 -2.12886,-0.86732 -1.81348,-1.26154 v 2.12886 l 0.39424,1.65578 1.025,2.2077 1.49808,1.65578 2.12886,0.86731 v 5.91351 h -3.62694 l -1.81348,0.47308 -1.73462,0.78846 -1.49808,1.34039 -1.41924,2.75964 h -4.7308 l -4.25772,-0.47308 h -8.75198 l -2.12886,-1.26155 -1.81348,-1.73463 -1.10384,-1.65577 v -2.12886 l -0.86732,-2.36541 -1.41924,-2.12886 -1.41924,-0.86731 h -1.10386 l -1.10384,0.86731 -0.70962,1.65578 v 2.20771 l 0.39422,2.5231 v 2.52309 l 0.70962,2.12886 1.10386,2.12886 0.70962,1.34039 1.10386,1.26155 v 2.52309 l -1.41924,0.39423 -2.5231,-0.39423 -2.2077,-0.86731 h -2.60194 l -2.12886,0.86731 -1.10386,2.12886 1.49808,-0.39423 1.73464,-0.47308 h 2.60194 l 2.91732,0.86731 2.2077,0.86731 h 1.41924 l 1.81348,-0.39423 1.89232,-1.26155 h 1.73462 l 1.4981,-0.47308 1.41922,0.47308 h 1.41924 l 1.4981,0.86732 1.41924,0.47308 1.49808,0.39423 h 1.81348 l 2.83848,-1.26155 2.2077,-0.47308 h 3.94234 l 1.89232,0.86732 1.81346,0.47308 1.81348,0.39423 h 1.73462 l 2.20772,-0.86731 1.81346,-0.39424 1.41924,-0.47308 h 1.10386 l 1.49808,0.47308 2.5231,0.39424 2.83848,0.47308 4.02118,-0.86732 3.94232,-1.73462 2.91734,0.39423 2.52308,1.34039 1.10386,0.39424 h 1.10386 l 1.41924,-0.39424 1.81346,-0.86731 2.20772,-0.47308 2.12886,-0.39423 h 1.49808 l 1.025,0.39423 0.94616,0.86731 1.10386,0.86732 1.10386,0.47308 1.025,0.39423 1.49808,-0.39423 1.41924,-1.3404 4.7308,0.47308 4.7308,0.86732 1.81348,-0.86732 0.70962,-1.73462 -2.20772,0.39423 z m -47.78108,-6.9385 h -1.10384 l -1.73464,-0.47308 -0.78846,-1.26155 1.49808,-0.86731 h 1.02502 l 1.81346,0.47308 0.78848,1.26154 z m 7.2539,0 h -2.12886 l -1.49808,-0.86732 v -1.26154 l 1.10384,-0.47308 1.025,-0.39424 1.81348,0.39424 0.39424,1.73462 z m -3.62694,-4.7308 h -5.0462 v -5.51927 h 2.5231 l 2.5231,0.47308 h 10.1712 l 4.7308,-0.86731 v 5.51927 h -15.2174 z m 11.98468,3.86348 -1.49808,0.86732 h -1.02502 l -1.89232,-0.47308 -0.63076,-1.26155 1.41924,-0.86731 1.10384,-0.39424 1.02502,0.39424 1.49808,0.47308 z m 6.54428,0.39424 -1.89232,0.47308 h -1.02502 l -1.81346,-1.3404 0.70962,-1.26154 h 1.10384 l 1.02502,-0.39424 0.78846,0.39424 1.41924,0.47308 z"
     id="path24"
     inkscape:connector-curvature="0"
     style="fill:#231f20;stroke-width:7.88466549" />
  <path
     class="cls-1"
     d="m 314.83468,88.939018 v 3.5481 1.89232 0.94616 l -1.26154,0.70962 -2.60194,-0.630774 V 94.458284 93.590972 89.727486 82.946674 47.22914 44.154121 42.182955 l -2.12886,-1.971166 -0.63078,-2.12886 -0.70962,-1.89232 -0.94616,-1.813472 -1.65578,-2.050014 -1.49808,-1.419238 -1.4981,-1.103854 -1.81346,-1.025006 -2.12886,-1.103854 -2.05002,-0.70962 -2.44424,-0.70962 h -2.3654 l -2.75964,-0.394232 h -5.67696 l -2.75962,0.394232 h -2.6808 l -2.68078,0.70962 -2.44424,0.70962 -2.12886,1.103854 -2.05002,1.025006 -1.81348,1.41924 -1.81346,1.41924 -1.4981,1.41924 -1.26154,1.813472 -1.1827,1.734626 -0.86732,1.813474 v 2.12886 l -0.63076,2.128858 v 2.050012 2.838479 l 0.63076,2.523094 0.86732,2.128858 1.49808,2.12886 1.4981,1.41924 2.12886,1.025006 2.12886,0.70962 h 4.80964 l 1.81348,-0.70962 1.81346,-0.70962 1.4981,-1.103852 1.49808,-1.41924 0.86732,-1.734626 0.63076,-1.813474 v -1.734626 -2.12886 -2.128858 -0.867313 -0.867312 l -1.1827,-1.41924 -1.1827,-1.103854 -2.2077,-0.551926 h -1.49808 -1.81348 -1.81348 l 1.81348,-1.103854 2.12886,-0.70962 h 2.68078 l 2.99618,-0.394232 3.62694,0.394232 2.99618,0.70962 1.1827,0.70962 1.26154,0.70962 1.81348,1.734626 1.1827,2.12886 v 0.551925 1.261546 4.573106 1.734628 l -1.1827,2.523092 -1.4981,2.444246 -1.26154,1.103854 -1.49808,1.419239 -1.81348,1.025007 -7.88466,3.942332 -5.12504,2.83848 -4.49426,2.759632 -3.62694,2.83848 -2.68078,2.523092 -0.86732,1.41924 -0.94616,1.41924 -0.86732,1.41924 -0.63076,1.734626 -0.94616,3.153868 v 3.942332 2.12886 1.734626 2.12886 0 l 0.55192,1.655778 0.86732,1.734628 0.94616,1.419238 0.8673,1.813474 1.4981,1.41924 1.1827,1.02501 1.57692,1.10385 1.81348,1.02501 1.81348,0.70962 1.73462,0.39423 1.81348,0.63077 h 6.62312 2.12886 l 2.12886,-0.70962 1.81346,-0.70962 1.73464,-1.025 1.81346,-1.41924 1.81348,-1.41924 1.49808,-2.12886 1.1827,-1.813476 1.26156,-1.734626 0.8673,2.12886 0.94616,1.734622 0.86732,1.81348 1.1827,1.41924 1.26154,1.025 1.49808,1.02501 1.4981,0.70962 1.81346,0.78847 h 1.81348 1.89232 3.3904 l 2.99618,-1.10386 1.1827,-0.39423 1.1827,-1.02501 2.12886,-1.73462 0.94616,-1.41924 0.55192,-1.41924 0.94616,-1.419242 v -1.41924 l 0.63078,-2.3654 v -1.1827 -10.486604 h -7.2539 z m -28.85788,5.992346 -2.12886,0.47308 h -2.12886 -1.81346 -0.86732 -1.26154 v -0.551926 l -1.3404,-1.576934 -0.63078,-1.419238 v -1.734628 -3.942332 l 0.55194,-2.444246 0.63076,-1.734626 0.55194,-2.3654 1.81346,-2.12886 2.99618,-3.153866 4.17888,-3.942332 5.4404,-5.282726 v 14.507784 2.83848 2.444246 l -0.55192,2.207706 -0.94616,2.444246 -0.86732,1.734626 -1.26154,2.12886 -1.025,0.867314 z"
     id="path26"
     inkscape:connector-curvature="0"
     style="fill:#231f20;stroke-width:7.88466549" />
  <polygon
     class="cls-1"
     points="58.79,14.54 58.64,14.41 58.49,14.32 58.33,14.23 57.95,14.14 57.53,14.1 57.23,14.1 56.92,14.18 56.62,14.28 56.35,14.41 56.08,14.59 55.81,14.77 55.55,15.04 55.32,15.31 55.09,15.62 55.05,15.35 54.93,15.08 54.82,14.86 54.67,14.68 54.4,14.41 54.1,14.23 53.71,14.14 53.33,14.1 52.99,14.14 52.72,14.18 52.41,14.28 52.15,14.41 51.88,14.59 51.62,14.81 51.39,15.04 51.16,15.35 50.89,15.71 50.89,14.36 50.32,14.36 49.05,14.36 47.8,14.36 47.8,15.71 48.14,15.71 48.37,15.76 48.52,15.85 48.6,16.03 48.64,16.29 48.64,16.5 48.64,22.31 48.6,22.58 48.45,22.81 48.29,22.85 48.24,22.87 48.14,22.9 47.83,22.9 47.83,24.25 49.74,24.2 51.65,24.2 51.65,22.87 51.65,22.85 51.35,22.85 51.16,22.85 51,22.72 50.93,22.54 50.93,22.27 50.89,18.68 50.89,18.05 50.97,17.51 51.04,17.06 51.27,16.52 51.29,16.5 51.46,16.29 51.69,16.12 51.84,16.07 51.99,16.03 52.15,16.03 52.3,16.03 52.45,16.07 52.68,16.25 52.82,16.5 52.84,16.52 52.87,16.7 52.87,16.88 52.91,22.27 52.87,22.54 52.68,22.81 52.49,22.85 52.22,22.85 52.22,22.87 52.22,24.2 54.06,24.2 55.89,24.2 55.89,22.87 55.89,22.85 55.62,22.85 55.28,22.72 55.2,22.54 55.16,22.27 55.16,18.63 55.16,18.05 55.2,17.51 55.32,17.02 55.43,16.66 55.54,16.5 55.62,16.39 55.85,16.16 56.08,16.03 56.23,16.03 56.39,15.98 56.54,16.03 56.81,16.12 57.03,16.34 57.07,16.5 57.11,16.66 57.15,16.84 57.15,22.27 57.11,22.54 57.07,22.72 56.92,22.81 56.73,22.85 56.46,22.85 56.46,22.87 56.46,24.2 58.37,24.2 60.24,24.16 60.24,22.87 60.24,22.81 59.94,22.81 59.56,22.72 59.44,22.54 59.44,22.27 59.4,16.5 59.4,16.25 59.36,15.76 59.29,15.35 59.14,14.99 "
     id="polygon28"
     style="fill:#231f20"
     transform="matrix(7.8846652,0,0,7.8846652,0,-85.942851)" />
  <path
     class="cls-1"
     d="m 130.88544,89.648638 v 3.5481 l -0.47308,1.1827 -0.70962,1.971166 -1.26154,0.394234 -1.1827,-0.70962 -1.10386,-1.65578 v 0 -3.863486 -42.4195 -2.444246 -1.261545 -0.867312 -2.523094 l -0.94616,-1.734626 -0.86732,-2.12886 -0.8673,-1.813472 -1.4981,-1.41924 -2.2077,-1.576934 -1.49808,-1.498086 -1.73464,-1.025006 -2.12886,-1.103854 -2.12884,-0.70962 -2.12886,-0.709618 h -2.6808 l -2.44424,-0.394234 H 99.0314 l -2.6808,0.394234 h -2.75962 l -2.6808,0.709618 -2.12886,0.70962 -2.3654,1.103854 -2.12886,1.025006 -1.81346,1.41924 -1.81348,1.41924 -1.49808,1.41924 -1.1827,1.813472 -1.26154,1.734626 -1.1827,1.576934 v 2.050012 1.65578 0.551926 2.050013 2.838479 l 0.55192,2.523093 0.86732,2.12886 1.57692,2.12886 1.49808,1.419238 2.05002,1.025008 2.12886,0.70962 h 4.80964 l 1.81348,-0.70962 1.81348,-0.70962 1.81346,-1.41924 1.1827,-1.41924 0.94616,-1.734626 0.55194,-1.813474 v -1.734626 -1.65578 l -0.55194,-2.12886 -0.63076,-1.419237 v 0 l -1.3404,-1.65578 -1.26154,-1.41924 -1.41924,-0.70962 h -1.57694 l -1.89232,-0.551926 h -1.73462 l 1.81346,-1.103854 2.12886,-0.70962 h 2.6808 6.62312 l 3.07502,0.70962 1.1827,0.70962 2.12886,1.41924 1.49808,2.12886 v 0.867312 0.551928 1.340391 1.41924 1.813473 1.419239 1.734628 l -0.86732,2.523092 -1.81346,2.444246 -1.1827,1.103854 -1.4981,1.419239 -1.81346,1.025007 -7.88468,3.863486 -5.36156,2.838478 -4.57312,2.83848 -3.5481,2.83848 -2.75962,2.523092 -0.86732,1.41924 -0.94616,1.41924 -0.8673,1.734628 -0.63078,1.419238 -0.86732,3.5481 v 5.67696 2.128858 1.1827 0.551928 l 0.63078,1.813472 0.94616,1.734626 0.86732,1.81347 0.8673,1.41924 1.4981,1.41924 1.26154,1.02501 1.73462,1.02501 1.57694,1.10385 1.81346,0.70962 1.81348,0.70962 1.81348,0.39423 h 2.05 2.44426 2.12886 l 2.05,-0.39423 2.12886,-0.70962 1.81348,-0.70962 1.81348,-1.10385 1.81346,-1.3404 1.81348,-1.41924 1.49808,-1.81347 1.1827,-1.734626 1.1827,-2.12886 0.86732,2.12886 0.94616,1.734626 0.94616,1.81347 1.1827,1.41924 1.1827,1.02501 1.49808,1.02501 1.49808,0.78846 1.81348,0.63078 h 1.81348 1.81346 3.31156 l 2.99618,-0.63078 1.26154,-0.78846 1.1827,-0.70962 2.05002,-2.05002 1.81348,-2.52309 0.63076,-1.734626 v -1.41924 l 0.78848,-3.07502 V 84.287066 h -5.83466 z m -28.85788,5.755806 -1.81346,0.70962 -2.12886,0.394234 H 96.3506 l -1.26154,-0.394234 -1.1827,-0.70962 -1.10386,-1.261546 -0.70962,-0.867314 -0.63076,-1.419238 v -1.734628 -3.942332 l 0.63076,-2.12886 0.55194,-2.050012 1.1827,-1.813474 1.81346,-2.12886 2.99618,-3.153866 4.25772,-3.942332 5.44042,-5.282726 v 14.744324 2.83848 2.444246 l -0.63078,2.12886 -0.8673,2.523092 -0.94616,1.734628 -1.1827,2.128858 v 0 z"
     id="path30"
     inkscape:connector-curvature="0"
     style="fill:#231f20;stroke-width:7.88466549" />
  <path
     class="cls-1"
     d="M 63.78694,73.721614 63.07732,70.883135 62.44654,68.360042 61.26384,65.915796 60.16,63.865783 58.6619,62.05231 l -1.49808,-1.734626 -2.68078,-1.734626 -2.75964,-1.41924 -3.5481,-1.1827 -3.62694,-0.70962 3.31156,-1.025006 2.68078,-1.41924 2.75964,-1.41924 2.3654,-1.813474 1.81346,-1.498086 1.4981,-1.813472 1.10384,-1.892319 v 0 l 0.94616,-2.523092 0.86732,-2.444246 0.63078,-2.83848 v -2.83848 -6.386578 -3.232715 l -0.63078,-2.444246 -0.86732,-2.523092 -1.10384,-2.60194 -1.26156,-2.12886 -1.49808,-1.734626 -1.97116,-2.050012 -1.81348,-1.4192397 -2.05002,-1.41924 -2.68078,-1.025006 -2.44424,-0.70962 -2.99618,-0.70962 -2.99616,-0.70962 -3.62696,-0.394234 H 16.87318 L 0,4.6519483 V 16.557792 h 4.80964 l 1.49808,0.70962 0.55194,1.41924 v 2.83848 22.865529 46.204137 1.025008 l -0.39424,1.103852 -0.55192,1.41924 -0.78846,0.47308 v 0 H 4.17888 0 v 11.748152 h 34.92906 l 3.8635,-0.39423 3.62694,-0.39424 h 3.62694 l 2.99618,-0.70962 2.68078,-0.70962 2.44424,-0.86731 1.81348,-1.10385 1.81348,-1.41924 1.49808,-1.73463 1.49808,-1.813472 0.94616,-2.12886 v -0.551926 l 0.70962,-1.89232 0.86732,-2.523094 V 86.967852 83.813986 80.265888 77.033174 Z M 30.11942,16.005866 h 3.31156 l 2.68078,0.70962 h 1.1827 l 1.26156,0.70962 0.8673,0.630772 0.94616,1.103854 1.1827,2.12886 0.86732,2.838478 0.63076,3.548101 v 8.515438 l -0.63076,3.863486 -0.86732,2.83848 v 0.551926 l -0.8673,1.576933 -1.26156,1.734626 -0.8673,0.70962 -0.94616,0.788466 h -1.1827 l -2.99618,0.70962 H 30.11942 27.0444 V 44.154121 16.005866 Z m 4.80964,78.846652 H 27.0444 V 61.34269 h 3.31156 3.62694 l 3.07502,0.70962 h 1.1827 l 1.1827,1.813473 0.94616,0.709619 0.86732,0.630774 0.8673,1.103854 0.63078,1.103852 v 1.340394 l 0.55192,1.813472 0.63078,3.5481 v 4.257718 4.25772 l -0.63078,3.469254 -0.8673,2.838478 -1.1827,2.523094 -0.94616,0.70962 -0.86732,0.315386 -0.94616,0.70962 -1.1827,0.70962 -1.81346,0.47308 z"
     id="path32"
     inkscape:connector-curvature="0"
     style="fill:#231f20;stroke-width:7.88466549" />
  <polygon
     class="cls-1"
     points="88.88,14.86 88.53,14.41 88.38,14.28 88.22,14.18 88.07,14.1 87.69,14.01 87.27,13.96 86.97,14.01 86.66,14.05 86.36,14.14 86.08,14.28 85.82,14.46 85.55,14.68 85.29,14.9 85.06,15.22 84.86,15.44 84.86,14.23 84.33,14.23 83.07,14.23 81.81,14.23 81.81,15.58 82.12,15.58 82.35,15.62 82.5,15.71 82.58,15.89 82.61,16.16 82.62,16.5 82.65,22.13 82.61,22.4 82.54,22.58 82.39,22.72 82.16,22.72 81.81,22.72 81.81,22.87 81.81,24.07 83.72,24.07 85.63,24.07 85.6,22.87 85.59,22.72 85.32,22.72 85.02,22.58 84.94,22.4 84.91,22.13 84.91,18.54 84.91,17.91 84.94,17.37 85.06,16.92 85.17,16.52 85.19,16.5 85.36,16.25 85.55,16.03 85.82,15.94 85.97,15.89 86.13,15.89 86.28,15.89 86.43,15.94 86.66,16.12 86.81,16.39 86.83,16.5 86.85,16.57 86.85,16.75 86.89,22.13 86.85,22.4 86.66,22.67 86.43,22.72 86.16,22.72 86.16,22.87 86.16,24.07 88.07,24.07 89.98,24.07 89.98,22.87 89.98,22.72 89.64,22.72 89.41,22.67 89.26,22.58 89.18,22.4 89.14,22.13 89.14,16.5 89.14,16.12 89.11,15.62 89.03,15.22 "
     id="polygon34"
     style="fill:#231f20"
     transform="matrix(7.8846652,0,0,7.8846652,0,-85.942851)" />
  <polygon
     class="cls-1"
     points="77.27,14.28 77.27,15.62 77.57,15.62 77.95,15.71 78.03,15.89 78.07,16.21 78.07,16.5 78.11,22.18 78.07,22.45 77.99,22.63 77.84,22.72 77.61,22.76 77.27,22.76 77.27,22.87 77.27,24.11 79.25,24.11 81.2,24.11 81.2,22.87 81.2,22.72 80.86,22.76 80.63,22.72 80.47,22.63 80.4,22.45 80.36,22.18 80.36,16.5 80.36,14.23 79.79,14.28 78.53,14.28 "
     id="polygon36"
     style="fill:#231f20"
     transform="matrix(7.8846652,0,0,7.8846652,0,-85.942851)" />
  <path
     class="cls-1"
     d="m 539.38994,88.2294 v 3.548098 l -0.55192,2.444246 v 0 l -1.025,0.551928 -1.65578,-0.394234 v 0 l -0.55194,-1.734626 v -3.942332 -6.307734 -35.79638 -2.838477 -2.12886 l -0.63076,-2.12886 -0.55194,-2.12886 -0.8673,-2.12886 -1.26156,-1.734626 -2.52308,-1.1827 -1.4981,-1.813472 -1.49808,-1.41924 -1.81348,-1.103854 -2.12886,-1.025006 -2.05,-0.70962 -2.44426,-0.70962 h -2.44424 -2.68078 -2.6808 -3.07502 -2.83846 l -2.3654,0.630774 -2.75964,0.394234 -2.3654,1.025006 -2.12886,0.70962 -2.05002,1.103852 -2.12886,1.41924 -1.97116,1.498086 -1.57694,1.734628 -1.41924,1.419238 -0.94616,1.813474 -0.8673,2.12886 -0.63078,1.734626 v 2.12886 4.809643 l 0.55192,2.444246 1.26156,2.523094 1.1827,1.734626 1.81346,1.41924 2.12886,1.103852 2.05002,0.70962 h 2.44424 2.12886 l 2.05002,-0.394232 1.81348,-1.025007 1.57692,-1.419239 1.4981,-1.41924 0.8673,-1.813474 0.63078,-1.734626 v -1.734626 -2.207706 -1.734625 0 l -0.78846,-1.65578 -0.94616,-1.340392 -1.57694,-1.340394 -1.49808,-1.025006 h -1.57694 -3.86348 l 1.81346,-1.025006 2.3654,-0.70962 2.75964,-0.394234 h 6.62312 l 2.99616,1.103854 2.12888,1.025006 1.1827,0.70962 1.49808,2.128858 v 1.41924 l 0.55192,1.261546 v 5.125031 1.41924 l -0.63078,1.41924 -0.63076,1.41924 -1.49808,2.12886 -1.1827,1.025006 -1.4981,1.41924 -1.81348,1.103853 -7.88466,3.863486 -5.12502,2.838479 -4.49426,2.83848 -3.46926,2.444246 -2.68078,2.83848 -1.26156,1.41924 -0.8673,1.41924 -0.63078,1.419238 -0.55192,1.419242 -0.63078,1.734626 v 1.813472 1.734626 3.863486 2.12886 l 0.63078,1.813474 0.39422,1.1827 v 0.551926 l 0.63078,1.813472 0.94616,1.734628 1.1827,1.419242 1.1827,1.41924 1.49808,1.10385 1.4981,1.02501 1.81346,1.10385 1.4981,0.63077 2.12886,0.70962 1.81346,0.39424 2.05002,0.39423 h 2.2077 l 2.05002,-0.39423 2.12886,-0.39424 h 2.05002 l 2.12884,-1.025 1.81348,-1.10386 1.81348,-1.41924 1.49808,-1.41924 1.81348,-1.734622 1.1827,-1.813474 1.26154,-2.12886 0.55192,2.12886 0.94616,2.12886 1.1827,1.419236 0.86732,1.41924 1.49808,1.41924 1.26156,0.70962 1.81346,0.70962 1.4981,0.70962 h 1.81346 2.05002 3.31156 l 3.07502,-0.70962 1.1827,-0.70962 2.05,-1.73462 2.12886,-2.12886 0.63078,-1.419242 0.63078,-1.41924 0.55192,-1.813474 V 94.852518 92.565964 88.70248 83.02552 h -7.88466 z m -30.67134,6.386578 h -2.12886 -1.4981 -1.49808 v 0 l -0.78846,-0.47308 -1.57694,-2.12886 -0.55192,-1.41924 V 89.175558 87.0467 84.91784 82.78898 l 0.94616,-2.12886 1.1827,-1.734626 1.81348,-2.12886 2.99616,-3.232712 4.17888,-3.863486 5.44042,-4.96734 v 14.192398 2.83848 l -0.63078,2.759632 v 1.813474 l -0.94616,2.444246 -0.86732,1.813472 -1.49808,2.12886 -1.49808,1.41924 -1.41924,0.47308 z"
     id="path38"
     inkscape:connector-curvature="0"
     style="fill:#231f20;stroke-width:7.88466549" />
  <polygon
     class="cls-1"
     points="74.4,18.27 73.72,17.96 73.3,17.78 72.95,17.55 72.65,17.37 72.38,17.19 72.19,17.02 72.04,16.84 71.96,16.66 71.96,16.5 71.96,16.43 71.96,16.25 72,16.07 72.08,15.89 72.34,15.67 72.54,15.58 72.73,15.53 72.95,15.53 73.26,15.58 73.56,15.67 73.83,15.85 74.1,16.12 74.33,16.48 74.34,16.5 74.52,16.88 74.71,17.33 74.86,17.82 75.97,17.82 75.97,16.5 75.97,14.28 75.06,14.28 74.64,14.99 74.45,14.77 74.25,14.59 74.02,14.41 73.83,14.28 73.56,14.14 73.34,14.1 73.07,14.05 72.76,14.01 72.5,14.05 72.23,14.1 71.96,14.14 71.7,14.23 71.47,14.36 71.27,14.5 71.05,14.63 70.89,14.86 70.7,15.04 70.55,15.26 70.43,15.53 70.32,15.76 70.25,16.03 70.2,16.34 70.18,16.5 70.17,16.61 70.17,16.97 70.17,17.24 70.2,17.51 70.25,17.78 70.32,18 70.4,18.23 70.51,18.45 70.63,18.68 70.78,18.85 71.16,19.21 71.62,19.57 72.19,19.93 72.84,20.25 73.26,20.43 73.64,20.65 73.95,20.83 74.22,21.06 74.45,21.24 74.56,21.46 74.67,21.64 74.67,21.86 74.67,22.09 74.64,22.27 74.56,22.45 74.45,22.63 74.29,22.72 74.14,22.81 73.95,22.85 73.88,22.87 73.76,22.9 73.61,22.87 73.53,22.85 73.3,22.85 73.11,22.81 72.92,22.72 72.73,22.63 72.54,22.5 72.38,22.36 72.19,22.22 71.92,21.82 71.66,21.37 71.47,20.83 71.27,20.2 70.17,20.2 70.17,22.87 70.17,24.16 71.08,24.11 71.54,23.3 71.77,23.57 72,23.8 72.23,23.98 72.5,24.11 72.8,24.25 73.11,24.29 73.41,24.38 73.76,24.38 74.02,24.38 74.33,24.34 74.59,24.25 74.83,24.16 75.06,24.07 75.28,23.89 75.52,23.75 75.7,23.53 75.86,23.3 76.01,23.08 76.11,22.87 76.12,22.85 76.24,22.58 76.32,22.27 76.39,22 76.43,21.68 76.43,21.33 76.43,21.06 76.39,20.79 76.32,20.52 76.27,20.25 76.16,20.02 76.08,19.8 75.93,19.57 75.78,19.35 75.44,18.99 74.98,18.63 "
     id="polygon40"
     style="fill:#231f20"
     transform="matrix(7.8846652,0,0,7.8846652,0,-85.942851)" />
  <polygon
     class="cls-1"
     points="79.83,13.51 80.06,13.33 80.21,13.11 80.36,12.88 80.44,12.61 80.44,12.3 80.4,12.03 80.36,11.76 80.21,11.53 80.06,11.31 79.83,11.13 79.6,10.99 79.37,10.9 79.06,10.9 78.79,10.9 78.53,10.99 78.3,11.13 78.11,11.31 77.92,11.53 77.8,11.76 77.73,12.03 77.73,12.34 77.73,12.61 77.8,12.88 77.95,13.11 78.11,13.33 78.34,13.51 78.57,13.65 78.79,13.73 79.1,13.73 79.37,13.73 79.6,13.65 "
     id="polygon42"
     style="fill:#231f20"
     transform="matrix(7.8846652,0,0,7.8846652,0,-85.942851)" />
  <polygon
     class="cls-1"
     points="45.31,14.18 45.09,14.28 44.9,14.41 44.7,14.54 44.55,14.72 44.36,14.9 44.17,15.22 44.17,14.41 43.63,14.41 42.49,14.41 41.38,14.41 41.38,15.76 41.73,15.76 41.96,15.8 42.11,15.89 42.19,16.07 42.22,16.34 42.22,16.5 42.22,22.31 42.19,22.58 42.07,22.81 41.94,22.87 41.88,22.9 41.73,22.9 41.42,22.9 41.42,24.25 43.6,24.25 45.73,24.25 45.73,22.9 45.24,22.9 45.05,22.9 44.95,22.87 44.9,22.85 44.66,22.76 44.55,22.58 44.51,22.31 44.48,18.68 44.51,17.78 44.55,17.02 44.62,16.5 44.63,16.43 44.78,15.94 44.94,15.62 45.2,15.35 45.35,15.31 45.51,15.22 45.7,15.17 45.89,15.17 46.08,15.17 46.34,15.31 46.5,15.53 46.34,15.49 46.15,15.49 45.96,15.49 45.77,15.58 45.62,15.67 45.47,15.8 45.35,15.98 45.27,16.16 45.24,16.39 45.22,16.5 45.2,16.66 45.24,16.88 45.27,17.1 45.39,17.28 45.51,17.46 45.66,17.6 45.85,17.69 46.08,17.78 46.31,17.78 46.57,17.73 46.84,17.69 47.03,17.51 47.22,17.33 47.37,17.1 47.49,16.84 47.53,16.52 47.53,16.5 47.57,16.16 47.53,15.71 47.45,15.31 47.3,14.99 47.07,14.68 46.8,14.46 46.54,14.28 46.19,14.18 45.77,14.14 45.54,14.14 "
     id="polygon44"
     style="fill:#231f20"
     transform="matrix(7.8846652,0,0,7.8846652,0,-85.942851)" />
  <polygon
     class="cls-1"
     points="28.21,15.94 28.29,16.12 28.33,16.39 28.33,16.5 28.33,22.76 28.33,22.87 28.33,22.99 28.36,23.44 28.4,24.02 28.48,24.65 28.52,25.1 28.52,25.46 28.52,25.77 28.48,26 28.36,26.27 28.21,26.49 27.98,26.58 27.83,26.63 27.68,26.63 27.52,26.63 27.37,26.58 27.22,26.54 27.07,26.45 27.3,26.4 27.45,26.36 27.6,26.31 27.83,26.09 27.91,25.91 27.94,25.73 27.98,25.5 27.94,25.23 27.91,25.05 27.79,24.83 27.68,24.65 27.52,24.52 27.37,24.43 27.18,24.34 26.95,24.34 26.76,24.34 26.53,24.43 26.34,24.56 26.19,24.74 26.03,24.92 25.96,25.14 25.88,25.41 25.85,25.68 25.88,25.86 25.92,26.09 25.96,26.27 26.11,26.58 26.34,26.89 26.49,27.03 26.84,27.25 27.22,27.43 27.68,27.52 28.14,27.52 28.48,27.52 28.75,27.48 29.01,27.43 29.28,27.34 29.47,27.25 29.7,27.12 29.85,26.99 30.05,26.8 30.16,26.58 30.27,26.36 30.39,26.13 30.46,25.82 30.54,25.5 30.58,25.19 30.62,24.83 30.62,24.43 30.61,22.87 30.58,16.5 30.58,14.46 30.01,14.46 28.59,14.46 27.14,14.46 27.14,15.8 27.83,15.8 28.06,15.85 "
     id="polygon46"
     style="fill:#231f20"
     transform="matrix(7.8846652,0,0,7.8846652,0,-85.942851)" />
  <polygon
     class="cls-1"
     points="28.78,11.22 28.55,11.31 28.36,11.53 28.17,11.76 28.06,11.98 27.98,12.25 27.94,12.52 27.98,12.84 28.06,13.11 28.17,13.33 28.36,13.56 28.55,13.73 28.78,13.87 29.05,13.91 29.32,13.96 29.59,13.91 29.85,13.87 30.08,13.73 30.31,13.56 30.46,13.33 30.58,13.06 30.65,12.79 30.69,12.52 30.65,12.25 30.58,11.98 30.46,11.71 30.27,11.49 30.08,11.31 29.85,11.17 29.59,11.13 29.32,11.09 29.05,11.13 "
     id="polygon48"
     style="fill:#231f20"
     transform="matrix(7.8846652,0,0,7.8846652,0,-85.942851)" />
  <polygon
     class="cls-1"
     points="25.31,16.39 25.27,15.89 25.19,15.49 25.04,15.13 24.7,14.68 24.55,14.54 24.39,14.46 24.24,14.36 23.9,14.28 23.48,14.23 23.17,14.23 22.83,14.32 22.56,14.41 22.26,14.54 21.99,14.72 21.72,14.95 21.49,15.17 21.26,15.49 21.07,15.71 21.07,14.5 20.5,14.5 19.24,14.5 17.98,14.5 17.98,15.85 18.32,15.85 18.55,15.89 18.71,15.98 18.78,16.16 18.82,16.43 18.82,16.5 18.82,22.4 18.78,22.67 18.71,22.85 18.68,22.87 18.55,22.94 18.32,22.99 18.02,22.99 18.02,24.34 19.89,24.34 21.8,24.34 21.8,22.99 21.53,22.99 21.23,22.87 21.19,22.85 21.11,22.67 21.11,22.4 21.07,18.81 21.07,18.18 21.15,17.64 21.23,17.19 21.45,16.66 21.56,16.5 21.65,16.39 21.88,16.25 22.03,16.16 22.18,16.16 22.33,16.12 22.6,16.21 22.75,16.25 22.93,16.5 22.95,16.52 23.05,16.79 23.05,16.97 23.05,22.4 23.05,22.67 22.98,22.85 22.95,22.87 22.83,22.94 22.64,22.99 22.33,22.99 22.33,24.34 24.28,24.34 26.19,24.34 26.19,22.99 25.85,22.99 25.62,22.94 25.49,22.87 25.46,22.85 25.39,22.67 25.35,22.4 25.31,16.5 "
     id="polygon50"
     style="fill:#231f20"
     transform="matrix(7.8846652,0,0,7.8846652,0,-85.942851)" />
</svg>
